<mxfile host="app.diagrams.net" modified="2023-04-21T13:41:58.500Z" agent="Mozilla/5.0 (X11; Ubuntu; Linux x86_64; rv:109.0) Gecko/20100101 Firefox/112.0" etag="ea0YNMNnB9cWW3Wf9-DV" version="21.2.1" type="device">
  <diagram name="Page-1" id="qw6NngMO0ZYJddfczoMM">
    <mxGraphModel dx="830" dy="1544" grid="1" gridSize="10" guides="1" tooltips="1" connect="1" arrows="1" fold="1" page="1" pageScale="1" pageWidth="850" pageHeight="1100" background="#FFFFFF" math="0" shadow="0">
      <root>
        <mxCell id="0" />
        <mxCell id="1" parent="0" />
        <mxCell id="rXsw42ZHBpkx2JWCvT4H-50" value="" style="whiteSpace=wrap;html=1;aspect=fixed;" vertex="1" parent="1">
          <mxGeometry y="-70" width="900" height="900" as="geometry" />
        </mxCell>
        <mxCell id="rXsw42ZHBpkx2JWCvT4H-47" value="Nutzer" style="shape=umlActor;verticalLabelPosition=bottom;verticalAlign=top;html=1;outlineConnect=0;" vertex="1" parent="1">
          <mxGeometry x="78.69" y="95" width="11.31" height="40" as="geometry" />
        </mxCell>
        <mxCell id="rXsw42ZHBpkx2JWCvT4H-32" value="" style="rounded=0;whiteSpace=wrap;html=1;fillColor=#E6E6E6;strokeColor=#B3B3B3;" vertex="1" parent="1">
          <mxGeometry x="120" y="-10" width="530" height="290" as="geometry" />
        </mxCell>
        <mxCell id="rXsw42ZHBpkx2JWCvT4H-25" value="Frontend" style="swimlane;whiteSpace=wrap;html=1;glass=0;shadow=0;fillStyle=auto;swimlaneFillColor=default;" vertex="1" parent="1">
          <mxGeometry x="140" y="40" width="180" height="220" as="geometry" />
        </mxCell>
        <mxCell id="rXsw42ZHBpkx2JWCvT4H-7" value="Three.js&amp;nbsp;&amp;nbsp;&amp;nbsp;&amp;nbsp;&amp;nbsp;&amp;nbsp;&amp;nbsp;&amp;nbsp;&amp;nbsp;&amp;nbsp;&amp;nbsp;&amp;nbsp;&amp;nbsp;&amp;nbsp;&amp;nbsp;&amp;nbsp; " style="rounded=0;whiteSpace=wrap;html=1;" vertex="1" parent="rXsw42ZHBpkx2JWCvT4H-25">
          <mxGeometry x="30" y="130" width="120" height="60" as="geometry" />
        </mxCell>
        <mxCell id="rXsw42ZHBpkx2JWCvT4H-4" value="&lt;div&gt;React.js&amp;nbsp;&amp;nbsp;&amp;nbsp;&amp;nbsp;&amp;nbsp;&amp;nbsp;&amp;nbsp;&amp;nbsp;&amp;nbsp;&amp;nbsp; &amp;nbsp; &amp;nbsp;&amp;nbsp; &lt;br&gt;&lt;/div&gt;" style="rounded=0;whiteSpace=wrap;html=1;" vertex="1" parent="rXsw42ZHBpkx2JWCvT4H-25">
          <mxGeometry x="30" y="50" width="120" height="60" as="geometry" />
        </mxCell>
        <mxCell id="rXsw42ZHBpkx2JWCvT4H-18" style="edgeStyle=orthogonalEdgeStyle;rounded=0;orthogonalLoop=1;jettySize=auto;html=1;" edge="1" parent="rXsw42ZHBpkx2JWCvT4H-25" source="rXsw42ZHBpkx2JWCvT4H-4" target="rXsw42ZHBpkx2JWCvT4H-7">
          <mxGeometry relative="1" as="geometry">
            <Array as="points">
              <mxPoint x="120" y="130" />
              <mxPoint x="120" y="130" />
            </Array>
          </mxGeometry>
        </mxCell>
        <mxCell id="rXsw42ZHBpkx2JWCvT4H-34" value="" style="shape=image;verticalLabelPosition=bottom;labelBackgroundColor=default;verticalAlign=top;aspect=fixed;imageAspect=0;image=https://cdn.discordapp.com/attachments/915643313489588244/1098959975302307840/2300px-React-icon.png;" vertex="1" parent="rXsw42ZHBpkx2JWCvT4H-25">
          <mxGeometry x="96.99000000000001" y="60" width="46.02" height="40" as="geometry" />
        </mxCell>
        <mxCell id="rXsw42ZHBpkx2JWCvT4H-37" value="" style="shape=image;verticalLabelPosition=bottom;labelBackgroundColor=default;verticalAlign=top;aspect=fixed;imageAspect=0;image=https://cdn.discordapp.com/attachments/915643313489588244/1098960520851234836/1200px-Three.png;" vertex="1" parent="rXsw42ZHBpkx2JWCvT4H-25">
          <mxGeometry x="90" y="130" width="60" height="60" as="geometry" />
        </mxCell>
        <mxCell id="rXsw42ZHBpkx2JWCvT4H-26" value="Backend" style="swimlane;whiteSpace=wrap;html=1;swimlaneFillColor=default;" vertex="1" parent="1">
          <mxGeometry x="340" y="40" width="290" height="220" as="geometry">
            <mxRectangle x="420" y="40" width="90" height="30" as="alternateBounds" />
          </mxGeometry>
        </mxCell>
        <mxCell id="rXsw42ZHBpkx2JWCvT4H-9" value="SAP CDS&amp;nbsp;&amp;nbsp;&amp;nbsp;&amp;nbsp;&amp;nbsp;&amp;nbsp;&amp;nbsp;&amp;nbsp;&amp;nbsp;&amp;nbsp;&amp;nbsp;&amp;nbsp;&amp;nbsp;&amp;nbsp;&amp;nbsp;&amp;nbsp;&amp;nbsp; " style="rounded=0;whiteSpace=wrap;html=1;" vertex="1" parent="rXsw42ZHBpkx2JWCvT4H-26">
          <mxGeometry x="23.55" y="130" width="120" height="60" as="geometry" />
        </mxCell>
        <mxCell id="rXsw42ZHBpkx2JWCvT4H-12" value="" style="shape=cylinder3;whiteSpace=wrap;html=1;boundedLbl=1;backgroundOutline=1;size=15;" vertex="1" parent="rXsw42ZHBpkx2JWCvT4H-26">
          <mxGeometry x="168.55" y="120" width="110" height="80" as="geometry" />
        </mxCell>
        <mxCell id="rXsw42ZHBpkx2JWCvT4H-13" style="edgeStyle=orthogonalEdgeStyle;rounded=0;orthogonalLoop=1;jettySize=auto;html=1;" edge="1" parent="rXsw42ZHBpkx2JWCvT4H-26" source="rXsw42ZHBpkx2JWCvT4H-9" target="rXsw42ZHBpkx2JWCvT4H-12">
          <mxGeometry relative="1" as="geometry" />
        </mxCell>
        <mxCell id="rXsw42ZHBpkx2JWCvT4H-11" value="" style="rounded=0;whiteSpace=wrap;html=1;" vertex="1" parent="rXsw42ZHBpkx2JWCvT4H-26">
          <mxGeometry x="23.55" y="50" width="150.97" height="60" as="geometry" />
        </mxCell>
        <mxCell id="rXsw42ZHBpkx2JWCvT4H-14" style="edgeStyle=orthogonalEdgeStyle;rounded=0;orthogonalLoop=1;jettySize=auto;html=1;" edge="1" parent="rXsw42ZHBpkx2JWCvT4H-26" source="rXsw42ZHBpkx2JWCvT4H-11" target="rXsw42ZHBpkx2JWCvT4H-9">
          <mxGeometry relative="1" as="geometry">
            <Array as="points">
              <mxPoint x="84" y="120" />
              <mxPoint x="84" y="120" />
            </Array>
          </mxGeometry>
        </mxCell>
        <mxCell id="rXsw42ZHBpkx2JWCvT4H-35" value="" style="shape=image;verticalLabelPosition=bottom;labelBackgroundColor=default;verticalAlign=top;aspect=fixed;imageAspect=0;image=https://cdn.discordapp.com/attachments/915643313489588244/1098960287945719818/dHG4aoXnwZEAAAAASUVORK5CYII.png;" vertex="1" parent="rXsw42ZHBpkx2JWCvT4H-26">
          <mxGeometry x="85" y="135" width="50" height="50" as="geometry" />
        </mxCell>
        <mxCell id="rXsw42ZHBpkx2JWCvT4H-38" value="" style="shape=image;verticalLabelPosition=bottom;labelBackgroundColor=default;verticalAlign=top;aspect=fixed;imageAspect=0;image=https://cdn.discordapp.com/attachments/915643313489588244/1098960696651305073/4XpulFfySpWyYTXuaVL2.png;" vertex="1" parent="rXsw42ZHBpkx2JWCvT4H-26">
          <mxGeometry x="29.520000000000003" y="61" width="139.03" height="38" as="geometry" />
        </mxCell>
        <mxCell id="rXsw42ZHBpkx2JWCvT4H-41" value="" style="shape=image;verticalLabelPosition=bottom;labelBackgroundColor=default;verticalAlign=top;aspect=fixed;imageAspect=0;image=https://cdn.discordapp.com/attachments/915643313489588244/1098961443665227866/2560px-SQLite370.png;" vertex="1" parent="rXsw42ZHBpkx2JWCvT4H-26">
          <mxGeometry x="181.37" y="150" width="84.36" height="40" as="geometry" />
        </mxCell>
        <mxCell id="rXsw42ZHBpkx2JWCvT4H-27" style="edgeStyle=orthogonalEdgeStyle;rounded=0;orthogonalLoop=1;jettySize=auto;html=1;entryX=0;entryY=0.5;entryDx=0;entryDy=0;" edge="1" parent="1" target="rXsw42ZHBpkx2JWCvT4H-4">
          <mxGeometry relative="1" as="geometry">
            <mxPoint x="100" y="120" as="sourcePoint" />
          </mxGeometry>
        </mxCell>
        <mxCell id="rXsw42ZHBpkx2JWCvT4H-31" value="" style="shape=image;verticalLabelPosition=bottom;labelBackgroundColor=default;verticalAlign=top;aspect=fixed;imageAspect=0;image=data:image/svg+xml,PHN2ZyB4bWxucz0iaHR0cDovL3d3dy53My5vcmcvMjAwMC9zdmciIGZpbGw9Im5vbmUiIHZpZXdCb3g9IjAgMCAxMTEgMzMiIGhlaWdodD0iMzMiIHdpZHRoPSIxMTEiPiYjeGE7PGcgY2xpcC1wYXRoPSJ1cmwoI2NsaXAwXzgzMjNfMTA3NTMpIj4mI3hhOzxwYXRoIGZpbGw9IiM1RkEwNEUiIGQ9Ik05Ny42ODk0IDMyLjc0MDdDOTcuNDAyNCAzMi43NDA3IDk3LjEzNDUgMzIuNjYzNyA5Ni44ODU4IDMyLjUyODlMOTQuMzQxMiAzMS4wMDgxQzkzLjk1ODYgMzAuNzk2MyA5NC4xNDk5IDMwLjcxOTMgOTQuMjY0NyAzMC42ODA4Qzk0Ljc4MTMgMzAuNTA3NSA5NC44NzY5IDMwLjQ2OSA5NS40MTI2IDMwLjE2MUM5NS40NyAzMC4xMjI1IDk1LjU0NjYgMzAuMTQxOCA5NS42MDQgMzAuMTgwM0w5Ny41NTU1IDMxLjM1NDZDOTcuNjMyIDMxLjM5MzEgOTcuNzI3NiAzMS4zOTMxIDk3Ljc4NSAzMS4zNTQ2TDEwNS40MTkgMjYuOTA3NUMxMDUuNDk1IDI2Ljg2OSAxMDUuNTM0IDI2Ljc5MiAxMDUuNTM0IDI2LjY5NThWMTcuODIwOUMxMDUuNTM0IDE3LjcyNDcgMTA1LjQ5NSAxNy42NDc3IDEwNS40MTkgMTcuNjA5Mkw5Ny43ODUgMTMuMTgxNEM5Ny43MDg1IDEzLjE0MjkgOTcuNjEyOCAxMy4xNDI5IDk3LjU1NTUgMTMuMTgxNEw4OS45MjE3IDE3LjYwOTJDODkuODQ1MSAxNy42NDc3IDg5LjgwNjkgMTcuNzQzOSA4OS44MDY5IDE3LjgyMDlWMjYuNjk1OEM4OS44MDY5IDI2Ljc3MjggODkuODQ1MSAyNi44NjkgODkuOTIxNyAyNi45MDc1TDkyLjAwNzEgMjguMTIwNEM5My4xMzU5IDI4LjY5NzkgOTMuODQzOCAyOC4wMjQxIDkzLjg0MzggMjcuMzUwM1YxOC41OTFDOTMuODQzOCAxOC40NzU1IDkzLjkzOTQgMTguMzYgOTQuMDczNCAxOC4zNkg5NS4wNDkxQzk1LjE2MzkgMTguMzYgOTUuMjc4NyAxOC40NTYyIDk1LjI3ODcgMTguNTkxVjI3LjM1MDNDOTUuMjc4NyAyOC44NzEyIDk0LjQ1NiAyOS43NTY3IDkzLjAyMTEgMjkuNzU2N0M5Mi41ODExIDI5Ljc1NjcgOTIuMjM2NyAyOS43NTY3IDkxLjI2MDkgMjkuMjc1NUw4OS4yNTIgMjguMTIwNEM4OC43NTQ2IDI3LjgzMTYgODguNDQ4NSAyNy4yOTI2IDg4LjQ0ODUgMjYuNzE1VjE3Ljg0MDJDODguNDQ4NSAxNy4yNjI2IDg4Ljc1NDYgMTYuNzIzNiA4OS4yNTIgMTYuNDM0OEw5Ni44ODU4IDExLjk4NzhDOTcuMzY0MSAxMS43MTgzIDk4LjAxNDYgMTEuNzE4MyA5OC40OTI5IDExLjk4NzhMMTA2LjEyNyAxNi40MzQ4QzEwNi42MjQgMTYuNzIzNiAxMDYuOTMgMTcuMjYyNiAxMDYuOTMgMTcuODQwMlYyNi43MTVDMTA2LjkzIDI3LjI5MjYgMTA2LjYyNCAyNy44MzE2IDEwNi4xMjcgMjguMTIwNEw5OC40OTI5IDMyLjU2NzRDOTguMjYzMyAzMi42NjM3IDk3Ljk3NjQgMzIuNzQwNyA5Ny42ODk0IDMyLjc0MDdaIi8+JiN4YTs8cGF0aCBmaWxsPSIjNUZBMDRFIiBkPSJNMTAwLjA2MiAyNi42Mzc5Qzk2LjcxMzQgMjYuNjM3OSA5Ni4wMjQ3IDI1LjA5NzggOTYuMDI0NyAyMy43ODg3Qzk2LjAyNDcgMjMuNjczMiA5Ni4xMjAzIDIzLjU1NzcgOTYuMjU0MiAyMy41NTc3SDk3LjI0OTFDOTcuMzYzOSAyMy41NTc3IDk3LjQ1OTYgMjMuNjM0NyA5Ny40NTk2IDIzLjc1MDJDOTcuNjEyNiAyNC43NzA1IDk4LjA1MjcgMjUuMjcxMSAxMDAuMDgxIDI1LjI3MTFDMTAxLjY4OCAyNS4yNzExIDEwMi4zNzcgMjQuOTA1MyAxMDIuMzc3IDI0LjAzOUMxMDIuMzc3IDIzLjUzODUgMTAyLjE4NSAyMy4xNzI3IDk5LjY3ODkgMjIuOTIyNEM5Ny41OTM1IDIyLjcxMDYgOTYuMjkyNSAyMi4yNDg2IDk2LjI5MjUgMjAuNTczN0M5Ni4yOTI1IDE5LjAxNDQgOTcuNTkzNSAxOC4wOTAzIDk5Ljc3NDYgMTguMDkwM0MxMDIuMjI0IDE4LjA5MDMgMTAzLjQyOSAxOC45Mzc0IDEwMy41ODIgMjAuNzg1NUMxMDMuNTgyIDIwLjg0MzMgMTAzLjU2MyAyMC45MDEgMTAzLjUyNSAyMC45NTg4QzEwMy40ODYgMjAuOTk3MyAxMDMuNDI5IDIxLjAzNTggMTAzLjM3MSAyMS4wMzU4SDEwMi4zNTdDMTAyLjI2MiAyMS4wMzU4IDEwMi4xNjYgMjAuOTU4OCAxMDIuMTQ3IDIwLjg2MjVDMTAxLjkxNyAxOS44MDM3IDEwMS4zMjQgMTkuNDU3MiA5OS43NTU1IDE5LjQ1NzJDOTcuOTk1MyAxOS40NTcyIDk3Ljc4NDggMjAuMDczMiA5Ny43ODQ4IDIwLjUzNTJDOTcuNzg0OCAyMS4wOTM1IDk4LjAzMzUgMjEuMjY2OCAxMDAuNDA2IDIxLjU3NDhDMTAyLjc1OSAyMS44ODI4IDEwMy44NjkgMjIuMzI1NiAxMDMuODY5IDIzLjk4MTJDMTAzLjg2OSAyNS42NzUzIDEwMi40NzIgMjYuNjM3OSAxMDAuMDYyIDI2LjYzNzlaIi8+JiN4YTs8cGF0aCBmaWxsPSIjNUZBMDRFIiBkPSJNMTExLjA4MyAxNy4zMjAyQzExMS4wODMgMTguMTI4OCAxMTAuNDEzIDE4LjgwMjYgMTA5LjYwOSAxOC44MDI2QzEwOC44MDYgMTguODAyNiAxMDguMTM2IDE4LjE0OCAxMDguMTM2IDE3LjMyMDJDMTA4LjEzNiAxNi40NzMyIDEwOC44MjUgMTUuODM3OSAxMDkuNjA5IDE1LjgzNzlDMTEwLjM5NCAxNS44Mzc5IDExMS4wODMgMTYuNDkyNCAxMTEuMDgzIDE3LjMyMDJaTTEwOC4zNjYgMTcuMzIwMkMxMDguMzY2IDE4LjAxMzMgMTA4LjkyMSAxOC41NzE2IDEwOS41OSAxOC41NzE2QzExMC4yNzkgMTguNTcxNiAxMTAuODM0IDE3Ljk5NCAxMTAuODM0IDE3LjMyMDJDMTEwLjgzNCAxNi42MjcyIDExMC4yNzkgMTYuMDg4MiAxMDkuNTkgMTYuMDg4MkMxMDguOTQgMTYuMDg4MiAxMDguMzY2IDE2LjYyNzIgMTA4LjM2NiAxNy4zMjAyWk0xMDkuMDU1IDE2LjQ5MjRIMTA5LjYyOUMxMDkuODIgMTYuNDkyNCAxMTAuMjAzIDE2LjQ5MjQgMTEwLjIwMyAxNi45MzUyQzExMC4yMDMgMTcuMjQzMiAxMTAuMDExIDE3LjMwMSAxMDkuODk2IDE3LjMzOTVDMTEwLjEyNiAxNy4zNTg3IDExMC4xNDUgMTcuNTEyOCAxMTAuMTY0IDE3LjcyNDVDMTEwLjE4MyAxNy44NTkzIDExMC4yMDMgMTguMDkwMyAxMTAuMjQxIDE4LjE2NzNIMTA5Ljg5NkMxMDkuODk2IDE4LjA5MDMgMTA5LjgzOSAxNy42NjY4IDEwOS44MzkgMTcuNjQ3NUMxMDkuODIgMTcuNTUxMyAxMDkuNzgyIDE3LjUxMjggMTA5LjY2NyAxNy41MTI4SDEwOS4zOFYxOC4xODY1SDEwOS4wNTVWMTYuNDkyNFpNMTA5LjM2MSAxNy4yMjRIMTA5LjYwOUMxMDkuODIgMTcuMjI0IDEwOS44NTggMTcuMDcgMTA5Ljg1OCAxNi45OTNDMTA5Ljg1OCAxNi43NjIgMTA5LjcwNSAxNi43NjIgMTA5LjYwOSAxNi43NjJIMTA5LjM0MlYxNy4yMjRIMTA5LjM2MVoiLz4mI3hhOzxwYXRoIGZpbGw9IndoaXRlIiBkPSJNMTguMTU2NSAxNy40NDE1QzE4LjE1NjUgMTcuMDk1IDE3Ljk2NTIgMTYuNzY3OCAxNy42NTkxIDE2LjU5NDVMOS41NjYxNCAxMS44Nzc5QzkuNDMyMjEgMTEuODAwOSA5LjI3OTE1IDExLjc2MjQgOS4xMjYwOSAxMS43NDMyQzkuMTA2OTYgMTEuNzQzMiA5LjA0OTU2IDExLjc0MzIgOS4wNDk1NiAxMS43NDMyQzguODk2NTEgMTEuNzQzMiA4Ljc0MzQ1IDExLjgwMDkgOC42MDk1MiAxMS44Nzc5TDAuNDk3NDM5IDE2LjU3NTJDMC4xOTEzMjMgMTYuNzQ4NSAwIDE3LjA3NTggMCAxNy40NDE1TDAuMDE5MTMyMyAzMC4wNzA0QzAuMDE5MTMyMyAzMC4yNDM3IDAuMTE0Nzk0IDMwLjQxNjkgMC4yNjc4NTIgMzAuNDkzOUMwLjQyMDkxIDMwLjU5MDIgMC42MTIyMzMgMzAuNTkwMiAwLjc0NjE1OSAzMC40OTM5TDUuNTY3NDkgMjcuNzIxN0M1Ljg3MzYxIDI3LjU0ODUgNi4wNjQ5MyAyNy4yMjEyIDYuMDY0OTMgMjYuODc0N1YyMC45NjQ1QzYuMDY0OTMgMjAuNjE4IDYuMjU2MjUgMjAuMjkwNyA2LjU2MjM3IDIwLjExNzVMOC42MDk1MiAxOC45MjM5QzguNzYyNTggMTguODI3NiA4LjkzNDc3IDE4Ljc4OTEgOS4xMDY5NiAxOC43ODkxQzkuMjc5MTUgMTguNzg5MSA5LjQ1MTM0IDE4LjgyNzYgOS41ODUyNyAxOC45MjM5TDExLjYzMjQgMjAuMTE3NUMxMS45Mzg1IDIwLjI5MDcgMTIuMTI5OSAyMC42MTggMTIuMTI5OSAyMC45NjQ1VjI2Ljg3NDdDMTIuMTI5OSAyNy4yMjEyIDEyLjMyMTIgMjcuNTQ4NSAxMi42MjczIDI3LjcyMTdMMTcuNDEwNCAzMC40OTM5QzE3LjU2MzQgMzAuNTkwMiAxNy43NTQ3IDMwLjU5MDIgMTcuOTA3OCAzMC40OTM5QzE4LjA2MDkgMzAuNDE2OSAxOC4xNTY1IDMwLjI0MzcgMTguMTU2NSAzMC4wNzA0VjE3LjQ0MTVaIiBjbGlwLXJ1bGU9ImV2ZW5vZGQiIGZpbGwtcnVsZT0iZXZlbm9kZCIvPiYjeGE7PHBhdGggZmlsbD0id2hpdGUiIGQ9Ik01Ny4xNDgyIDAuMDU3NzUzOUM1Ni45OTUxIC0wLjAxOTI1MTMgNTYuODAzOCAtMC4wMTkyNTEzIDU2LjY2OTggMC4wNTc3NTM5QzU2LjUxNjggMC4xNTQwMSA1Ni40MjExIDAuMzA4MDIxIDU2LjQyMTEgMC40ODEyODNWMTIuOTk0NkM1Ni40MjExIDEzLjExMDEgNTYuMzYzNyAxMy4yMjU2IDU2LjI0ODkgMTMuMzAyN0M1Ni4xMzQxIDEzLjM2MDQgNTYuMDE5NCAxMy4zNjA0IDU1LjkwNDYgMTMuMzAyN0w1My44NzY1IDEyLjEyODNDNTMuNTcwNCAxMS45NTUxIDUzLjIwNjkgMTEuOTU1MSA1Mi45MDA4IDEyLjEyODNMNDQuNzg4NyAxNi44NDQ5QzQ0LjQ4MjYgMTcuMDE4MiA0NC4yOTEzIDE3LjM0NTQgNDQuMjkxMyAxNy42OTE5VjI3LjEwNThDNDQuMjkxMyAyNy40NTI0IDQ0LjQ4MjYgMjcuNzc5NiA0NC43ODg3IDI3Ljk1MjlMNTIuOTAwOCAzMi42Njk1QzUzLjIwNjkgMzIuODQyNyA1My41NzA0IDMyLjg0MjcgNTMuODc2NSAzMi42Njk1TDYxLjk4ODYgMjcuOTUyOUM2Mi4yOTQ3IDI3Ljc3OTYgNjIuNDg2MSAyNy40NTI0IDYyLjQ4NjEgMjcuMTA1OFYzLjYzODVDNjIuNDg2MSAzLjI3MjcyIDYyLjI5NDcgMi45NDU0NSA2MS45ODg2IDIuNzcyMTlMNTcuMTQ4MiAwLjA1Nzc1MzlaTTU2LjQwMiAyNC4wMDY0QzU2LjQwMiAyNC4xMDI2IDU2LjM2MzcgMjQuMTc5NiA1Ni4yODcyIDI0LjIxODFMNTMuNTEzIDI1LjgzNTNDNTMuNDM2NSAyNS44NzM4IDUzLjM0MDggMjUuODczOCA1My4yNjQzIDI1LjgzNTNMNTAuNDkwMSAyNC4yMTgxQzUwLjQxMzYgMjQuMTc5NiA1MC4zNzUzIDI0LjA4MzQgNTAuMzc1MyAyNC4wMDY0VjIwLjc3MjJDNTAuMzc1MyAyMC42NzU5IDUwLjQxMzYgMjAuNTk4OSA1MC40OTAxIDIwLjU2MDRMNTMuMjY0MyAxOC45NDMzQzUzLjM0MDggMTguOTA0OCA1My40MzY1IDE4LjkwNDggNTMuNTEzIDE4Ljk0MzNMNTYuMjg3MiAyMC41NjA0QzU2LjM2MzcgMjAuNTk4OSA1Ni40MDIgMjAuNjk1MiA1Ni40MDIgMjAuNzcyMlYyNC4wMDY0WiIgY2xpcC1ydWxlPSJldmVub2RkIiBmaWxsLXJ1bGU9ImV2ZW5vZGQiLz4mI3hhOzxwYXRoIGZpbGw9IndoaXRlIiBkPSJNODQuMTQzMSAyMC42OTUxQzg0LjQ0OTMgMjAuNTIxOCA4NC42MjE0IDIwLjE5NDYgODQuNjIxNCAxOS44NDhWMTcuNTU3MUM4NC42MjE0IDE3LjIxMDYgODQuNDMwMSAxNi44ODMzIDg0LjE0MzEgMTYuNzEwMUw3Ni4wODg0IDEyLjAxMjhDNzUuNzgyMyAxMS44Mzk1IDc1LjQxODggMTEuODM5NSA3NS4xMTI3IDEyLjAxMjhMNjcuMDAwNiAxNi43MjkzQzY2LjY5NDUgMTYuOTAyNiA2Ni41MDMyIDE3LjIyOTkgNjYuNTAzMiAxNy41NzY0VjI2Ljk5MDNDNjYuNTAzMiAyNy4zMzY4IDY2LjY5NDUgMjcuNjY0MSA2Ny4wMDA2IDI3LjgzNzNMNzUuMDU1MyAzMi40NTc2Qzc1LjM2MTQgMzIuNjMwOSA3NS43MjQ5IDMyLjYzMDkgNzYuMDExOSAzMi40NTc2TDgwLjg5MDYgMjkuNzI0QzgxLjA0MzcgMjkuNjQ3IDgxLjEzOTQgMjkuNDczNyA4MS4xMzk0IDI5LjMwMDRDODEuMTM5NCAyOS4xMjcyIDgxLjA0MzcgMjguOTUzOSA4MC44OTA2IDI4Ljg3NjlMNzIuNzQwMyAyNC4xNjAzQzcyLjU4NzIgMjQuMDY0MSA3Mi40OTE2IDIzLjkxMDEgNzIuNDkxNiAyMy43MzY4VjIwLjc5MTRDNzIuNDkxNiAyMC42MTgxIDcyLjU4NzIgMjAuNDQ0OCA3Mi43NDAzIDIwLjM2NzhMNzUuMjg0OSAxOC45MDQ3Qzc1LjQzOCAxOC44MDg1IDc1LjYyOTMgMTguODA4NSA3NS43ODIzIDE4LjkwNDdMNzguMzI2OSAyMC4zNjc4Qzc4LjQ4IDIwLjQ2NDEgNzguNTc1NiAyMC42MTgxIDc4LjU3NTYgMjAuNzkxNFYyMy4xMDE1Qzc4LjU3NTYgMjMuMjc0OCA3OC42NzEzIDIzLjQ0OCA3OC44MjQ0IDIzLjUyNUM3OC45Nzc0IDIzLjYyMTMgNzkuMTY4NyAyMy42MjEzIDc5LjMyMTggMjMuNTI1TDg0LjE0MzEgMjAuNjk1MVoiIGNsaXAtcnVsZT0iZXZlbm9kZCIgZmlsbC1ydWxlPSJldmVub2RkIi8+JiN4YTs8cGF0aCBmaWxsPSIjNUZBMDRFIiBkPSJNNzUuNDc2NCAyMC4yNTI1Qzc1LjUzMzggMjAuMjE0IDc1LjYxMDQgMjAuMjE0IDc1LjY2NzggMjAuMjUyNUw3Ny4yMTc1IDIxLjE1NzNDNzcuMjc0OSAyMS4xOTU4IDc3LjMxMzEgMjEuMjUzNiA3Ny4zMTMxIDIxLjMzMDZWMjMuMTQwMkM3Ny4zMTMxIDIzLjIxNzIgNzcuMjc0OSAyMy4yNzUgNzcuMjE3NSAyMy4zMTM1TDc1LjY2NzggMjQuMjE4M0M3NS42MTA0IDI0LjI1NjggNzUuNTMzOCAyNC4yNTY4IDc1LjQ3NjQgMjQuMjE4M0w3My45MjY3IDIzLjMxMzVDNzMuODY5MyAyMy4yNzUgNzMuODMxMSAyMy4yMTcyIDczLjgzMTEgMjMuMTQwMlYyMS4zMzA2QzczLjgzMTEgMjEuMjUzNiA3My44NjkzIDIxLjE5NTggNzMuOTI2NyAyMS4xNTczTDc1LjQ3NjQgMjAuMjUyNVoiIGNsaXAtcnVsZT0iZXZlbm9kZCIgZmlsbC1ydWxlPSJldmVub2RkIi8+JiN4YTs8cGF0aCBmaWxsPSJ1cmwoI3BhaW50MF9saW5lYXJfODMyM18xMDc1MykiIGQ9Ik0zMS43MjA3IDEyLjA1MTNDMzEuNDE0NSAxMS44NzgxIDMxLjA1MSAxMS44NzgxIDMwLjc0NDkgMTIuMDUxM0wyMi42OTAyIDE2LjcyOTRDMjIuMzg0MSAxNi45MDI3IDIyLjIxMTkgMTcuMjI5OSAyMi4yMTE5IDE3LjU3NjVWMjYuOTUxOEMyMi4yMTE5IDI3LjI5ODQgMjIuNDAzMiAyNy42MjU2IDIyLjY5MDIgMjcuNzk4OUwzMC43NDQ5IDMyLjQ3N0MzMS4wNTEgMzIuNjUwMiAzMS40MTQ1IDMyLjY1MDIgMzEuNzIwNyAzMi40NzdMMzkuNzc1MyAyNy43OTg5QzQwLjA4MTUgMjcuNjI1NiA0MC4yNTM2IDI3LjI5ODQgNDAuMjUzNiAyNi45NTE4VjE3LjU3NjVDNDAuMjUzNiAxNy4yMjk5IDQwLjA2MjMgMTYuOTAyNyAzOS43NzUzIDE2LjcyOTRMMzEuNzIwNyAxMi4wNTEzWiIvPiYjeGE7PHBhdGggZmlsbD0idXJsKCNwYWludDFfbGluZWFyXzgzMjNfMTA3NTMpIiBkPSJNMzkuNzk0NiAxNi43Mjk0TDMxLjcwMTcgMTIuMDUxM0MzMS42MjUyIDEyLjAxMjggMzEuNTI5NSAxMS45NzQzIDMxLjQ1MyAxMS45NTUxTDIyLjM4NDMgMjcuNTY3OUMyMi40NjA4IDI3LjY2NDEgMjIuNTU2NSAyNy43NDExIDIyLjY1MjEgMjcuNzk4OUwzMC43NDUxIDMyLjQ3N0MzMC45NzQ3IDMyLjYxMTcgMzEuMjQyNSAzMi42NTAyIDMxLjQ5MTIgMzIuNTczMkw0MC4wMDUxIDE2LjkwMjdDMzkuOTQ3NyAxNi44MjU3IDM5Ljg3MTIgMTYuNzY3OSAzOS43OTQ2IDE2LjcyOTRaIi8+JiN4YTs8cGF0aCBmaWxsPSJ1cmwoI3BhaW50Ml9saW5lYXJfODMyM18xMDc1MykiIGQ9Ik0zOS43OTQ3IDI3Ljc5ODZDNDAuMDI0MyAyNy42NjM4IDQwLjE5NjUgMjcuNDMyOCA0MC4yNzMgMjcuMTgyNUwzMS40MTQ3IDExLjkzNTVDMzEuMTg1MiAxMS44OTcgMzAuOTM2NCAxMS45MTYyIDMwLjcyNiAxMi4wNTFMMjIuNjkwNCAxNi43MDk4TDMxLjM1NzMgMzIuNjExNEMzMS40NzIxIDMyLjU5MjEgMzEuNjA2MSAzMi41NTM2IDMxLjcyMDkgMzIuNDk1OUwzOS43OTQ3IDI3Ljc5ODZaIi8+JiN4YTs8L2c+JiN4YTs8ZGVmcz4mI3hhOzxsaW5lYXJHcmFkaWVudCBncmFkaWVudFVuaXRzPSJ1c2VyU3BhY2VPblVzZSIgeTI9IjMwLjQ0ODQiIHgyPSIyNy4xNTc0IiB5MT0iMTUuNTM1NCIgeDE9IjM0LjUxMzIiIGlkPSJwYWludDBfbGluZWFyXzgzMjNfMTA3NTMiPiYjeGE7PHN0b3Agc3RvcC1jb2xvcj0iIzNGODczRiIvPiYjeGE7PHN0b3Agc3RvcC1jb2xvcj0iIzNGOEIzRCIgb2Zmc2V0PSIwLjMyOTYiLz4mI3hhOzxzdG9wIHN0b3AtY29sb3I9IiMzRTk2MzgiIG9mZnNldD0iMC42MzY3Ii8+JiN4YTs8c3RvcCBzdG9wLWNvbG9yPSIjM0RBOTJFIiBvZmZzZXQ9IjAuOTM0MSIvPiYjeGE7PHN0b3Agc3RvcC1jb2xvcj0iIzNEQUUyQiIgb2Zmc2V0PSIxIi8+JiN4YTs8L2xpbmVhckdyYWRpZW50PiYjeGE7PGxpbmVhckdyYWRpZW50IGdyYWRpZW50VW5pdHM9InVzZXJTcGFjZU9uVXNlIiB5Mj0iOC4yODg0MSIgeDI9IjUwLjUzMjgiIHkxPSIyMy4zNTg5IiB4MT0iMzAuMDA4OCIgaWQ9InBhaW50MV9saW5lYXJfODMyM18xMDc1MyI+JiN4YTs8c3RvcCBzdG9wLWNvbG9yPSIjM0Y4NzNGIiBvZmZzZXQ9IjAuMTM3NiIvPiYjeGE7PHN0b3Agc3RvcC1jb2xvcj0iIzUyQTA0NCIgb2Zmc2V0PSIwLjQwMTYiLz4mI3hhOzxzdG9wIHN0b3AtY29sb3I9IiM2NEI3NDkiIG9mZnNldD0iMC43MTI5Ii8+JiN4YTs8c3RvcCBzdG9wLWNvbG9yPSIjNkFCRjRCIiBvZmZzZXQ9IjAuOTA4MSIvPiYjeGE7PC9saW5lYXJHcmFkaWVudD4mI3hhOzxsaW5lYXJHcmFkaWVudCBncmFkaWVudFVuaXRzPSJ1c2VyU3BhY2VPblVzZSIgeTI9IjIyLjI2MDgiIHgyPSI0MC41NTQ5IiB5MT0iMjIuMjYwOCIgeDE9IjIxLjkxNjgiIGlkPSJwYWludDJfbGluZWFyXzgzMjNfMTA3NTMiPiYjeGE7PHN0b3Agc3RvcC1jb2xvcj0iIzZBQkY0QiIgb2Zmc2V0PSIwLjA5MTkxNjUiLz4mI3hhOzxzdG9wIHN0b3AtY29sb3I9IiM2NEI3NDkiIG9mZnNldD0iMC4yODcxIi8+JiN4YTs8c3RvcCBzdG9wLWNvbG9yPSIjNTJBMDQ0IiBvZmZzZXQ9IjAuNTk4NCIvPiYjeGE7PHN0b3Agc3RvcC1jb2xvcj0iIzNGODczRiIgb2Zmc2V0PSIwLjg2MjQiLz4mI3hhOzwvbGluZWFyR3JhZGllbnQ+JiN4YTs8Y2xpcFBhdGggaWQ9ImNsaXAwXzgzMjNfMTA3NTMiPiYjeGE7PHJlY3QgZmlsbD0id2hpdGUiIGhlaWdodD0iMzMiIHdpZHRoPSIxMTEiLz4mI3hhOzwvY2xpcFBhdGg+JiN4YTs8L2RlZnM+JiN4YTs8L3N2Zz4=;" vertex="1" parent="1">
          <mxGeometry x="140" width="111" height="33" as="geometry" />
        </mxCell>
        <mxCell id="rXsw42ZHBpkx2JWCvT4H-39" style="edgeStyle=orthogonalEdgeStyle;rounded=0;orthogonalLoop=1;jettySize=auto;html=1;" edge="1" parent="1" source="rXsw42ZHBpkx2JWCvT4H-4" target="rXsw42ZHBpkx2JWCvT4H-11">
          <mxGeometry relative="1" as="geometry" />
        </mxCell>
        <mxCell id="rXsw42ZHBpkx2JWCvT4H-45" value="" style="shape=image;verticalLabelPosition=bottom;labelBackgroundColor=default;verticalAlign=top;aspect=fixed;imageAspect=0;image=https://upload.wikimedia.org/wikipedia/commons/thumb/3/3c/TuxFlat.svg/1024px-TuxFlat.svg.png;" vertex="1" parent="1">
          <mxGeometry x="63.66" y="90" width="41.38" height="50" as="geometry" />
        </mxCell>
      </root>
    </mxGraphModel>
  </diagram>
</mxfile>
